<svg width="175" height="38" viewBox="0 0 175 38" fill="none" xmlns="http://www.w3.org/2000/svg">
<path d="M14.3 31.75V37H0.35V35.7C0.616667 35.8 0.816667 35.8 0.95 35.7C1.11667 35.6667 1.26667 35.55 1.4 35.35C1.56667 35.1167 1.65 34.7667 1.65 34.3V3.95C1.65 3.45 1.56667 3.1 1.4 2.9C1.26667 2.66667 1.11667 2.51667 0.95 2.45C0.816667 2.38333 0.616667 2.38333 0.35 2.45V1.25H14.3V6.5H13C12.9667 5.73333 12.8667 5.05 12.7 4.45C12.5333 3.95 12.25 3.48333 11.85 3.05C11.4833 2.58333 10.9667 2.35 10.3 2.35H5.1V18.55H8.6C9.03333 18.55 9.36667 18.4333 9.6 18.2C9.83333 17.9667 10 17.7 10.1 17.4C10.2333 17.0333 10.3 16.6167 10.3 16.15H11.45V22.3H10.3C10.3 21.8333 10.2333 21.4333 10.1 21.1C10 20.7667 9.83333 20.4833 9.6 20.25C9.36667 19.9833 9.03333 19.85 8.6 19.85H5.1V35.8H10.3C10.9667 35.8 11.4833 35.6 11.85 35.2C12.25 34.8 12.5333 34.3333 12.7 33.8C12.8667 33.2 12.9667 32.5167 13 31.75H14.3ZM34.3957 16.15C36.629 19.0167 38.2457 21.6833 39.2457 24.15C40.279 26.5833 40.579 28.9833 40.1457 31.35C39.9457 32.1167 39.679 32.8667 39.3457 33.6C39.0457 34.3 38.6457 34.9333 38.1457 35.5C37.6457 36.0667 37.029 36.5333 36.2957 36.9C35.5624 37.2333 34.679 37.4167 33.6457 37.45C32.979 37.4833 32.3624 37.35 31.7957 37.05C31.2624 36.7833 30.779 36.55 30.3457 36.35C29.9124 36.1167 29.5624 36.0167 29.2957 36.05C29.0624 36.0833 28.929 36.4333 28.8957 37.1H27.5957V28.2H28.9457C28.8457 28.9333 28.8124 29.6333 28.8457 30.3C28.9124 30.9333 29.0124 31.55 29.1457 32.15C29.279 32.65 29.4457 33.15 29.6457 33.65C29.8457 34.1167 30.1124 34.55 30.4457 34.95C30.779 35.35 31.1957 35.6833 31.6957 35.95C32.1957 36.2167 32.8124 36.3667 33.5457 36.4C34.0457 36.4333 34.5957 36.3 35.1957 36C35.7957 35.7 36.279 35.3167 36.6457 34.85C37.479 33.7167 37.829 32.5 37.6957 31.2C37.5624 29.9 37.179 28.6333 36.5457 27.4C35.9124 26.1667 35.1624 25 34.2957 23.9C33.429 22.7667 32.6957 21.8 32.0957 21C30.929 19.6 29.9957 18.2167 29.2957 16.85C28.629 15.4833 28.129 14.1667 27.7957 12.9C27.4624 11.6333 27.2957 10.4167 27.2957 9.25C27.2957 8.05 27.4124 6.91667 27.6457 5.85C28.079 4.25 28.7624 3.01667 29.6957 2.15C30.6624 1.25 32.0957 0.799998 33.9957 0.799998C34.629 0.799998 35.1957 0.966665 35.6957 1.3C36.229 1.6 36.679 1.86667 37.0457 2.1C37.4457 2.33333 37.7457 2.43333 37.9457 2.4C38.1457 2.36667 38.279 2 38.3457 1.3H39.7457V10.05H38.3457C38.4124 8.51666 38.2957 7.2 37.9957 6.1C37.7624 5.1 37.3457 4.18333 36.7457 3.35C36.1457 2.51667 35.2457 2.1 34.0457 2.1C33.379 2.1 32.7457 2.23333 32.1457 2.5C31.579 2.76666 31.1124 3.11666 30.7457 3.55C29.9457 4.68333 29.5624 5.83333 29.5957 7C29.6624 8.13333 29.9457 9.25 30.4457 10.35C30.979 11.45 31.629 12.5 32.3957 13.5C33.1624 14.4667 33.829 15.35 34.3957 16.15ZM67.4801 1.25V6.55H66.1801C66.1467 5.75 66.0467 5.05 65.8801 4.45C65.7134 3.95 65.4301 3.48333 65.0301 3.05C64.6634 2.58333 64.1467 2.35 63.4801 2.35H61.4301V34.3C61.4301 34.7667 61.4967 35.1167 61.6301 35.35C61.7634 35.55 61.9134 35.6667 62.0801 35.7C62.2467 35.8 62.4467 35.8 62.6801 35.7V37H56.6301V35.7C56.8967 35.8 57.1134 35.8 57.2801 35.7C57.4467 35.6667 57.5967 35.55 57.7301 35.35C57.8967 35.1167 57.9801 34.7667 57.9801 34.3V2.35H55.8801C55.1801 2.35 54.6467 2.58333 54.2801 3.05C53.9134 3.48333 53.6634 3.95 53.5301 4.45C53.3301 5.05 53.2134 5.75 53.1801 6.55H51.8301V1.25H67.4801ZM93.5188 31.75V37H79.5688V35.7C79.8354 35.8 80.0354 35.8 80.1688 35.7C80.3354 35.6667 80.4854 35.55 80.6188 35.35C80.7854 35.1167 80.8688 34.7667 80.8688 34.3V3.95C80.8688 3.45 80.7854 3.1 80.6188 2.9C80.4854 2.66667 80.3354 2.51667 80.1688 2.45C80.0354 2.38333 79.8354 2.38333 79.5688 2.45V1.25H93.5188V6.5H92.2188C92.1854 5.73333 92.0854 5.05 91.9188 4.45C91.7521 3.95 91.4688 3.48333 91.0687 3.05C90.7021 2.58333 90.1854 2.35 89.5188 2.35H84.3188V18.55H87.8188C88.2521 18.55 88.5854 18.4333 88.8188 18.2C89.0521 17.9667 89.2188 17.7 89.3188 17.4C89.4521 17.0333 89.5188 16.6167 89.5188 16.15H90.6688V22.3H89.5188C89.5188 21.8333 89.4521 21.4333 89.3188 21.1C89.2188 20.7667 89.0521 20.4833 88.8188 20.25C88.5854 19.9833 88.2521 19.85 87.8188 19.85H84.3188V35.8H89.5188C90.1854 35.8 90.7021 35.6 91.0687 35.2C91.4688 34.8 91.7521 34.3333 91.9188 33.8C92.0854 33.2 92.1854 32.5167 92.2188 31.75H93.5188ZM119.864 31.75V37H106.414V35.7C106.681 35.8 106.881 35.8 107.014 35.7C107.181 35.6667 107.348 35.55 107.514 35.35C107.681 35.1167 107.764 34.7667 107.764 34.3V3.95C107.764 3.45 107.681 3.1 107.514 2.9C107.348 2.66667 107.181 2.51667 107.014 2.45C106.881 2.38333 106.681 2.38333 106.414 2.45V1.25H112.464V2.45C112.198 2.38333 111.964 2.38333 111.764 2.45C111.631 2.51667 111.498 2.66667 111.364 2.9C111.231 3.1 111.164 3.45 111.164 3.95V35.7H115.864C116.564 35.7 117.098 35.5167 117.464 35.15C117.831 34.75 118.098 34.2833 118.264 33.75C118.431 33.1833 118.531 32.5167 118.564 31.75H119.864ZM145.392 31.75V37H131.942V35.7C132.208 35.8 132.408 35.8 132.542 35.7C132.708 35.6667 132.875 35.55 133.042 35.35C133.208 35.1167 133.292 34.7667 133.292 34.3V3.95C133.292 3.45 133.208 3.1 133.042 2.9C132.875 2.66667 132.708 2.51667 132.542 2.45C132.408 2.38333 132.208 2.38333 131.942 2.45V1.25H137.992V2.45C137.725 2.38333 137.492 2.38333 137.292 2.45C137.158 2.51667 137.025 2.66667 136.892 2.9C136.758 3.1 136.692 3.45 136.692 3.95V35.7H141.392C142.092 35.7 142.625 35.5167 142.992 35.15C143.358 34.75 143.625 34.2833 143.792 33.75C143.958 33.1833 144.058 32.5167 144.092 31.75H145.392ZM172.719 34.35C172.786 34.8167 172.919 35.15 173.119 35.35C173.352 35.55 173.602 35.6833 173.869 35.75C174.136 35.8167 174.436 35.8167 174.769 35.75V37H167.419V35.75C167.719 35.8167 167.986 35.8167 168.219 35.75C168.386 35.6833 168.536 35.55 168.669 35.35C168.802 35.15 168.836 34.8167 168.769 34.35C168.769 34.2833 168.669 33.7 168.469 32.6C168.302 31.4667 168.086 29.9833 167.819 28.15H161.419C161.086 29.9833 160.819 31.4667 160.619 32.6C160.452 33.7 160.369 34.2833 160.369 34.35C160.269 34.8167 160.269 35.15 160.369 35.35C160.502 35.55 160.652 35.6833 160.819 35.75C161.019 35.8167 161.286 35.8167 161.619 35.75V37H156.819V35.75C157.119 35.8167 157.419 35.8167 157.719 35.75C157.986 35.6833 158.219 35.55 158.419 35.35C158.652 35.15 158.819 34.8167 158.919 34.35C158.919 34.3167 159.002 33.8333 159.169 32.9C159.336 31.9333 159.552 30.6833 159.819 29.15C160.119 27.5833 160.452 25.8167 160.819 23.85C161.186 21.8833 161.552 19.8667 161.919 17.8L164.919 1.4H167.469C168.436 7.5 169.302 12.95 170.069 17.75C170.402 19.8167 170.719 21.8333 171.019 23.8C171.319 25.7667 171.586 27.5333 171.819 29.1C172.086 30.6333 172.302 31.8833 172.469 32.85C172.636 33.8167 172.719 34.3167 172.719 34.35ZM161.619 26.85H167.669C167.469 25.4833 167.236 24.0167 166.969 22.45C166.736 20.8833 166.486 19.3167 166.219 17.75C165.986 16.15 165.736 14.6 165.469 13.1C165.236 11.6 165.019 10.2167 164.819 8.95C164.552 10.2167 164.286 11.6 164.019 13.1C163.752 14.6 163.469 16.15 163.169 17.75C162.902 19.3167 162.636 20.8833 162.369 22.45C162.102 24.0167 161.852 25.4833 161.619 26.85Z" fill="#CCAF7B"/>
</svg>
